<?xml version="1.0" encoding="utf-8"?>
<!-- Generator: Adobe Illustrator 16.0.4, SVG Export Plug-In . SVG Version: 6.00 Build 0)  -->
<!DOCTYPE svg PUBLIC "-//W3C//DTD SVG 1.1//EN" "http://www.w3.org/Graphics/SVG/1.1/DTD/svg11.dtd">
<svg version="1.1" id="Layer_1" xmlns="http://www.w3.org/2000/svg" xmlns:xlink="http://www.w3.org/1999/xlink" x="0px" y="0px"
	 width="360px" height="80px" viewBox="0 0 360 80" enable-background="new 0 0 360 80" xml:space="preserve">
<g>
	<g>
		<g>
			<path fill="#0C1975" d="M52.133,20.416c-0.002,0-0.004,0-0.006,0H35.615v12.31h16.519v0c3.399,0,6.155-2.756,6.155-6.155
				C58.289,23.172,55.533,20.416,52.133,20.416z"/>
			<path fill="#0C1975" d="M22.318,21.692l-7.562,7.166c0,0-0.767,1.159-2.869,1.159c-2.102,0-8.178,0-8.178,0v12.31
				c0,0,6.917,0,8.443,0c1.525,0,2.63-1.184,2.63-1.184l7.621-7.221c0,0,0.981-1.196,2.639-1.196c1.104,0,9.495,0,9.495,0V20.416
				c0,0-8.233,0-9.443,0C23.305,20.416,22.318,21.692,22.318,21.692z"/>
		</g>
		<g>
			<path fill="#0C1975" d="M52.133,34.146c-0.002,0-0.004,0-0.006,0H35.615v12.311h16.519l0,0c3.399,0,6.155-2.756,6.155-6.156
				C58.289,36.902,55.533,34.146,52.133,34.146z"/>
			<path fill="#0C1975" d="M22.318,35.422l-7.562,7.166c0,0-0.767,1.16-2.869,1.16c-2.102,0-8.178,0-8.178,0v12.31
				c0,0,6.917,0,8.443,0c1.525,0,2.63-1.184,2.63-1.184l7.621-7.221c0,0,0.981-1.196,2.639-1.196c1.104,0,9.495,0,9.495,0V34.146
				c0,0-8.233,0-9.443,0C23.305,34.146,22.318,35.422,22.318,35.422z"/>
		</g>
	</g>
	<g>
		<path fill-rule="evenodd" clip-rule="evenodd" fill="#0C1975" d="M60.55,42.933c0,0,0.71,0,1.209,0c0.974,0,1.921-0.368,3-1.868
			c1.463-2.034,1.315-5.55,1.315-5.55s-0.105-6.629,2.788-9.995c2.894-3.367,4.341-3.472,5.708-3.472c0.395,0,1.026,0,1.026,0v4.55
			c0,0-0.631,0-1.052,0c-1.368,0-2.562,1.138-3.288,2.42c-1.368,2.42-1.29,6.076-1.29,6.076s-0.315,7.312-2.788,9.574
			c-1.584,1.449-3.182,2.21-5.208,2.21c-0.841,0-1.42-0.053-1.42-0.053V42.933z"/>
		<path fill-rule="evenodd" clip-rule="evenodd" fill="#0C1975" d="M193.277,42.933c0,0,0.71,0,1.21,0
			c0.974,0,1.921-0.368,2.999-1.868c1.463-2.034,1.314-5.549,1.314-5.549s-0.105-6.629,2.788-9.996
			c2.894-3.367,4.341-3.472,5.709-3.472c0.395,0,1.025,0,1.025,0v4.55c0,0-0.631,0-1.052,0c-1.368,0-2.563,1.137-3.288,2.42
			c-1.368,2.419-1.29,6.076-1.29,6.076s-0.315,7.312-2.787,9.574c-1.585,1.449-3.183,2.21-5.208,2.21
			c-0.842,0-1.421-0.053-1.421-0.053V42.933z"/>
		<path fill-rule="evenodd" clip-rule="evenodd" fill="#0C1975" d="M105.421,26.169c0.116,0,0.229,0.013,0.345,0.019v-4.022
			c-0.167-0.007-0.331-0.027-0.499-0.027c-6.436,0-11.653,5.573-11.653,12.448s5.218,12.448,11.653,12.448
			c0.168,0,0.333-0.019,0.499-0.027V43.36c-0.116,0.005-0.229,0.019-0.345,0.019c-4.449,0-8.056-3.853-8.056-8.604
			C97.366,30.021,100.972,26.169,105.421,26.169z"/>
		<path fill-rule="evenodd" clip-rule="evenodd" fill="#0C1975" d="M120.023,22.152v17.112h-0.002
			c-0.005,1.997-1.627,3.614-3.629,3.614c-2.001,0-3.624-1.617-3.628-3.614l0,0V22.152h-4.052v18.465h0.001
			c0.01,3.546,3.455,6.418,7.704,6.418s7.694-2.872,7.704-6.418h0.004V22.152H120.023z"/>
		<path fill-rule="evenodd" clip-rule="evenodd" fill="#0C1975" d="M326.03,47.035V29.923h0.001c0.006-1.998,1.628-3.615,3.63-3.615
			c2.001,0,3.624,1.618,3.629,3.615l0,0v17.112h4.051V28.57h-0.001c-0.011-3.545-3.455-6.417-7.704-6.417s-7.693,2.872-7.704,6.417
			h-0.005v18.465H326.03z"/>
		<path fill-rule="evenodd" clip-rule="evenodd" fill="#0C1975" d="M241.7,28.57c-0.01-3.545-3.454-6.417-7.704-6.417
			c-4.249,0-7.693,2.872-7.704,6.417h-0.004v18.465h4.103v-8.083h7.26v8.083h4.052V28.57H241.7z M230.391,35.011v-5.088h0.002
			c0.006-1.998,1.627-3.615,3.629-3.615c2.001,0,3.624,1.618,3.629,3.615v5.088H230.391z"/>
		<path fill-rule="evenodd" clip-rule="evenodd" fill="#0C1975" d="M319.434,28.57c-0.011-3.545-3.455-6.417-7.704-6.417
			c-4.25,0-7.694,2.872-7.704,6.417h-0.005v18.465h4.103v-8.083h7.26v8.083h4.052L319.434,28.57L319.434,28.57z M308.123,35.011
			v-5.088h0.002c0.006-1.998,1.628-3.615,3.63-3.615c2.001,0,3.623,1.618,3.628,3.615v5.088H308.123z"/>
		<rect x="144.353" y="22.099" fill-rule="evenodd" clip-rule="evenodd" fill="#0C1975" width="4.313" height="24.936"/>
		<polygon fill-rule="evenodd" clip-rule="evenodd" fill="#0C1975" points="165.474,22.047 160.53,22.047 156.215,22.047 
			151.271,22.047 151.271,26.519 156.215,26.519 156.215,46.982 160.53,46.982 160.53,26.519 165.474,26.519 		"/>
		<polygon fill-rule="evenodd" clip-rule="evenodd" fill="#0C1975" points="184.77,22.008 180,22.008 176.393,29.653 
			172.785,22.008 168.016,22.008 174.236,35.164 174.236,47.035 178.55,47.035 178.55,35.296 		"/>
		<polygon fill-rule="evenodd" clip-rule="evenodd" fill="#0C1975" points="224.289,22.099 219.345,22.099 215.03,22.099 
			210.086,22.099 210.086,26.571 215.03,26.571 215.03,47.036 219.345,47.036 219.345,26.571 224.289,26.571 		"/>
		<polygon fill-rule="evenodd" clip-rule="evenodd" fill="#0C1975" points="257.799,22.099 252.854,22.099 248.541,22.099 
			243.597,22.099 243.597,26.571 248.541,26.571 248.541,47.035 252.854,47.035 252.854,26.571 257.799,26.571 		"/>
		<path fill-rule="evenodd" clip-rule="evenodd" fill="#0C1975" d="M273.042,22.113h-7.656c-0.091-0.006-0.182-0.014-0.274-0.014
			c-2.408,0-4.992,2.57-5.021,4.972h-0.003v15.033h0.005c0.05,2.383,2.625,4.932,5.02,4.932c0.04,0,0.079-0.006,0.118-0.007v0.007
			h7.812v-4.313h-6.009c-1.921,0-2.633-0.356-2.633-1.882c0-0.986,0-1.035,0-1.446c0-1.802,0.436-2.275,2.448-2.275
			c0.868,0,6.193,0,6.193,0v-4.313c0,0-5.442,0-6.219,0c-1.737,0-2.423-0.448-2.423-2.223c0-0.46,0-1.447,0-1.447
			c0-1.297,0.752-2.709,2.686-2.709c1.03,0,5.956,0,5.956,0V22.113z"/>
		<path fill-rule="evenodd" clip-rule="evenodd" fill="#0C1975" d="M91.074,22.114h-7.655c-0.091-0.005-0.182-0.014-0.274-0.014
			c-2.409,0-4.993,2.57-5.022,4.971H78.12v15.032h0.005c0.049,2.383,2.625,4.932,5.02,4.932c0.04,0,0.078-0.005,0.118-0.006v0.006
			h7.812v-4.312h-6.009c-1.92,0-2.632-0.356-2.632-1.882c0-0.986,0-1.035,0-1.447c0-1.802,0.436-2.275,2.448-2.275
			c0.868,0,6.193,0,6.193,0v-4.313c0,0-5.442,0-6.218,0c-1.737,0-2.423-0.448-2.423-2.223c0-0.46,0-1.446,0-1.446
			c0-1.298,0.752-2.71,2.686-2.71c1.03,0,5.956,0,5.956,0V22.114z"/>
		<path fill-rule="evenodd" clip-rule="evenodd" fill="#0C1975" d="M135.983,37.463c3.418-0.744,5.983-3.851,5.983-7.575
			c0-4.279-3.386-7.748-7.562-7.748c-0.951,0-2.696,0-2.696,0h-4.866v24.895h1.236h3.63v-8.232l5.666,8.232h5.198L135.983,37.463z
			 M131.293,33.963v-7.911c0,0,2.247,0,2.821,0c2.091,0,3.235,2.235,3.235,4.054c0,1.66-1.312,3.857-2.683,3.857
			C134.169,33.963,131.293,33.963,131.293,33.963z"/>
		<polygon fill-rule="evenodd" clip-rule="evenodd" fill="#0C1975" points="356.402,47.035 346.856,34.152 355.757,22.047 
			350.884,22.047 344.411,30.851 344.101,30.433 344.101,22.099 340.051,22.099 340.051,47.036 344.101,47.036 344.101,37.9 
			344.461,37.411 351.591,47.035 		"/>
		<path fill-rule="evenodd" clip-rule="evenodd" fill="#0C1975" d="M297.991,33.095c1.638-0.671,2.604-3.196,2.604-4.952
			c0-3.9-3.591-5.991-5.645-5.991c-0.58,0-7.875,0-7.875,0v9.311v2.144v13.271h8.581v-0.002c3.544-0.01,6.417-3.454,6.417-7.704
			C302.074,36.153,300.26,34.042,297.991,33.095z M291.048,25.46l2.337,0.007c1.834,0.005,3.318,1.056,3.318,2.893
			c0,1.749-1.02,3.354-3.061,3.354h-2.595V25.46z M294.303,42.826h-3.285v-6.812h3.285c1.998,0.006,3.615,1.214,3.615,3.216
			C297.918,41.775,296.301,42.82,294.303,42.826z"/>
	</g>
</g>
</svg>
